<mxfile host="Electron" agent="Mozilla/5.0 (Windows NT 10.0; Win64; x64) AppleWebKit/537.36 (KHTML, like Gecko) draw.io/26.0.15 Chrome/132.0.6834.196 Electron/34.2.0 Safari/537.36" version="26.0.15">
  <diagram name="Page-1" id="-uxoC0M6I0gfjdSEFGPv">
    <mxGraphModel dx="1213" dy="703" grid="1" gridSize="10" guides="1" tooltips="1" connect="1" arrows="1" fold="1" page="1" pageScale="1" pageWidth="827" pageHeight="1169" math="0" shadow="0">
      <root>
        <mxCell id="0" />
        <mxCell id="1" parent="0" />
        <mxCell id="l9YVHGjYDrxqyhy5DjKv-40" value="" style="rounded=0;whiteSpace=wrap;html=1;" vertex="1" parent="1">
          <mxGeometry x="120" y="100" width="850" height="560" as="geometry" />
        </mxCell>
        <mxCell id="l9YVHGjYDrxqyhy5DjKv-35" style="edgeStyle=orthogonalEdgeStyle;rounded=0;orthogonalLoop=1;jettySize=auto;html=1;entryX=0.5;entryY=0;entryDx=0;entryDy=0;" edge="1" parent="1" source="l9YVHGjYDrxqyhy5DjKv-1" target="l9YVHGjYDrxqyhy5DjKv-29">
          <mxGeometry relative="1" as="geometry" />
        </mxCell>
        <mxCell id="l9YVHGjYDrxqyhy5DjKv-1" value="PictureController" style="swimlane;fontStyle=1;align=center;verticalAlign=top;childLayout=stackLayout;horizontal=1;startSize=26;horizontalStack=0;resizeParent=1;resizeParentMax=0;resizeLast=0;collapsible=1;marginBottom=0;whiteSpace=wrap;html=1;fillColor=#f5f5f5;fontColor=#333333;strokeColor=#666666;" vertex="1" parent="1">
          <mxGeometry x="150" y="205" width="190" height="102" as="geometry" />
        </mxCell>
        <mxCell id="l9YVHGjYDrxqyhy5DjKv-3" value="" style="line;strokeWidth=1;fillColor=none;align=left;verticalAlign=middle;spacingTop=-1;spacingLeft=3;spacingRight=3;rotatable=0;labelPosition=right;points=[];portConstraint=eastwest;strokeColor=inherit;" vertex="1" parent="l9YVHGjYDrxqyhy5DjKv-1">
          <mxGeometry y="26" width="190" as="geometry" />
        </mxCell>
        <mxCell id="l9YVHGjYDrxqyhy5DjKv-4" value="&lt;div&gt;+ postPicture(ctx): response&lt;/div&gt;&lt;div&gt;+ getPicture(ctx): response&lt;br&gt;+ getCount(ctx): response&lt;/div&gt;&lt;div&gt;+ getLabels(ctx): response&lt;/div&gt;" style="text;strokeColor=#666666;fillColor=#f5f5f5;align=left;verticalAlign=top;spacingLeft=4;spacingRight=4;overflow=hidden;rotatable=0;points=[[0,0.5],[1,0.5]];portConstraint=eastwest;whiteSpace=wrap;html=1;fontColor=#333333;" vertex="1" parent="l9YVHGjYDrxqyhy5DjKv-1">
          <mxGeometry y="26" width="190" height="76" as="geometry" />
        </mxCell>
        <mxCell id="l9YVHGjYDrxqyhy5DjKv-36" style="edgeStyle=orthogonalEdgeStyle;rounded=0;orthogonalLoop=1;jettySize=auto;html=1;entryX=0.5;entryY=0;entryDx=0;entryDy=0;" edge="1" parent="1" source="l9YVHGjYDrxqyhy5DjKv-5" target="l9YVHGjYDrxqyhy5DjKv-21">
          <mxGeometry relative="1" as="geometry" />
        </mxCell>
        <mxCell id="l9YVHGjYDrxqyhy5DjKv-5" value="UserController" style="swimlane;fontStyle=1;align=center;verticalAlign=top;childLayout=stackLayout;horizontal=1;startSize=26;horizontalStack=0;resizeParent=1;resizeParentMax=0;resizeLast=0;collapsible=1;marginBottom=0;whiteSpace=wrap;html=1;fillColor=#f5f5f5;fontColor=#333333;strokeColor=#666666;" vertex="1" parent="1">
          <mxGeometry x="440" y="205" width="206" height="146" as="geometry" />
        </mxCell>
        <mxCell id="l9YVHGjYDrxqyhy5DjKv-6" value="" style="line;strokeWidth=1;fillColor=none;align=left;verticalAlign=middle;spacingTop=-1;spacingLeft=3;spacingRight=3;rotatable=0;labelPosition=right;points=[];portConstraint=eastwest;strokeColor=inherit;" vertex="1" parent="l9YVHGjYDrxqyhy5DjKv-5">
          <mxGeometry y="26" width="206" as="geometry" />
        </mxCell>
        <mxCell id="l9YVHGjYDrxqyhy5DjKv-7" value="&lt;div&gt;+ saveUser(ctx): response&lt;/div&gt;&lt;div&gt;+ validateUser(ctx): response&lt;br&gt;+ getMfaFromuser(ctx): response&lt;/div&gt;&lt;div&gt;+ activateMfa(ctx): response&lt;/div&gt;&lt;div&gt;+ checkIfAdmin(ctx): response&lt;/div&gt;&lt;div&gt;+ checkIfUser(ctx): response&lt;/div&gt;&lt;div&gt;+ getLabels(ctx): response&lt;/div&gt;" style="text;strokeColor=#666666;fillColor=#f5f5f5;align=left;verticalAlign=top;spacingLeft=4;spacingRight=4;overflow=hidden;rotatable=0;points=[[0,0.5],[1,0.5]];portConstraint=eastwest;whiteSpace=wrap;html=1;fontColor=#333333;" vertex="1" parent="l9YVHGjYDrxqyhy5DjKv-5">
          <mxGeometry y="26" width="206" height="120" as="geometry" />
        </mxCell>
        <mxCell id="l9YVHGjYDrxqyhy5DjKv-9" value="&amp;lt;&amp;lt;interface&amp;gt;&amp;gt;&lt;div&gt;&lt;b&gt;IUserData&lt;/b&gt;&lt;/div&gt;" style="swimlane;fontStyle=0;childLayout=stackLayout;horizontal=1;startSize=26;fillColor=#f5f5f5;horizontalStack=0;resizeParent=1;resizeParentMax=0;resizeLast=0;collapsible=1;marginBottom=0;whiteSpace=wrap;html=1;fontColor=#333333;strokeColor=default;" vertex="1" parent="1">
          <mxGeometry x="790" y="450" width="160" height="130" as="geometry" />
        </mxCell>
        <mxCell id="l9YVHGjYDrxqyhy5DjKv-10" value="+ email: string" style="text;strokeColor=none;fillColor=#f5f5f5;align=left;verticalAlign=top;spacingLeft=4;spacingRight=4;overflow=hidden;rotatable=0;points=[[0,0.5],[1,0.5]];portConstraint=eastwest;whiteSpace=wrap;html=1;fontColor=#333333;" vertex="1" parent="l9YVHGjYDrxqyhy5DjKv-9">
          <mxGeometry y="26" width="160" height="26" as="geometry" />
        </mxCell>
        <mxCell id="l9YVHGjYDrxqyhy5DjKv-11" value="+ password: string" style="text;strokeColor=none;fillColor=#f5f5f5;align=left;verticalAlign=top;spacingLeft=4;spacingRight=4;overflow=hidden;rotatable=0;points=[[0,0.5],[1,0.5]];portConstraint=eastwest;whiteSpace=wrap;html=1;fontColor=#333333;" vertex="1" parent="l9YVHGjYDrxqyhy5DjKv-9">
          <mxGeometry y="52" width="160" height="26" as="geometry" />
        </mxCell>
        <mxCell id="l9YVHGjYDrxqyhy5DjKv-12" value="+ mfa: boolean | null&lt;div&gt;&lt;br&gt;&lt;/div&gt;&lt;div&gt;+ isAdmin: boolean | null&lt;/div&gt;" style="text;strokeColor=none;fillColor=#f5f5f5;align=left;verticalAlign=top;spacingLeft=4;spacingRight=4;overflow=hidden;rotatable=0;points=[[0,0.5],[1,0.5]];portConstraint=eastwest;whiteSpace=wrap;html=1;fontColor=#333333;" vertex="1" parent="l9YVHGjYDrxqyhy5DjKv-9">
          <mxGeometry y="78" width="160" height="52" as="geometry" />
        </mxCell>
        <mxCell id="l9YVHGjYDrxqyhy5DjKv-21" value="User-Provider" style="swimlane;fontStyle=1;align=center;verticalAlign=top;childLayout=stackLayout;horizontal=1;startSize=26;horizontalStack=0;resizeParent=1;resizeParentMax=0;resizeLast=0;collapsible=1;marginBottom=0;whiteSpace=wrap;html=1;fillColor=#f5f5f5;fontColor=#333333;strokeColor=#666666;" vertex="1" parent="1">
          <mxGeometry x="398" y="390" width="290" height="254" as="geometry" />
        </mxCell>
        <mxCell id="l9YVHGjYDrxqyhy5DjKv-22" value="+ static instance: User-Provider" style="text;strokeColor=#666666;fillColor=#f5f5f5;align=left;verticalAlign=top;spacingLeft=4;spacingRight=4;overflow=hidden;rotatable=0;points=[[0,0.5],[1,0.5]];portConstraint=eastwest;whiteSpace=wrap;html=1;fontColor=#333333;" vertex="1" parent="l9YVHGjYDrxqyhy5DjKv-21">
          <mxGeometry y="26" width="290" height="26" as="geometry" />
        </mxCell>
        <mxCell id="l9YVHGjYDrxqyhy5DjKv-23" value="" style="line;strokeWidth=1;fillColor=none;align=left;verticalAlign=middle;spacingTop=-1;spacingLeft=3;spacingRight=3;rotatable=0;labelPosition=right;points=[];portConstraint=eastwest;strokeColor=inherit;" vertex="1" parent="l9YVHGjYDrxqyhy5DjKv-21">
          <mxGeometry y="52" width="290" height="2" as="geometry" />
        </mxCell>
        <mxCell id="l9YVHGjYDrxqyhy5DjKv-24" value="- constructor()&lt;div&gt;+ static getInstance(): User-Provider&lt;/div&gt;&lt;div&gt;- getReqeustProperties(body): IUserData&lt;/div&gt;&lt;div&gt;+ saveUser(ctx): response&lt;/div&gt;&lt;div&gt;+ validateuser(ctx): response&lt;/div&gt;&lt;div&gt;+ clearCollection(ctx): response&lt;/div&gt;&lt;div&gt;+ getAllUsers(ctx): response&lt;/div&gt;&lt;div&gt;+ getUserMfa(ctx): response&lt;/div&gt;&lt;div&gt;+ setIsAdmin(ctx): response&amp;nbsp;&lt;/div&gt;&lt;div&gt;+ setIsNotAdmin(ctx): response&lt;/div&gt;&lt;div&gt;+ switchMfa(ctx): response&lt;/div&gt;&lt;div&gt;- getBodyWithHashedPassword(item): IUserData&lt;/div&gt;&lt;div&gt;- getOneFromDB(password, email): IUserData&lt;/div&gt;" style="text;strokeColor=#666666;fillColor=#f5f5f5;align=left;verticalAlign=top;spacingLeft=4;spacingRight=4;overflow=hidden;rotatable=0;points=[[0,0.5],[1,0.5]];portConstraint=eastwest;whiteSpace=wrap;html=1;fontColor=#333333;" vertex="1" parent="l9YVHGjYDrxqyhy5DjKv-21">
          <mxGeometry y="54" width="290" height="200" as="geometry" />
        </mxCell>
        <mxCell id="l9YVHGjYDrxqyhy5DjKv-29" value="Picture-Provider" style="swimlane;fontStyle=1;align=center;verticalAlign=top;childLayout=stackLayout;horizontal=1;startSize=26;horizontalStack=0;resizeParent=1;resizeParentMax=0;resizeLast=0;collapsible=1;marginBottom=0;whiteSpace=wrap;html=1;fillColor=#f5f5f5;fontColor=#333333;strokeColor=#666666;" vertex="1" parent="1">
          <mxGeometry x="130" y="390" width="230" height="162" as="geometry" />
        </mxCell>
        <mxCell id="l9YVHGjYDrxqyhy5DjKv-30" value="+ static instance: Picture-Provider" style="text;strokeColor=#666666;fillColor=#f5f5f5;align=left;verticalAlign=top;spacingLeft=4;spacingRight=4;overflow=hidden;rotatable=0;points=[[0,0.5],[1,0.5]];portConstraint=eastwest;whiteSpace=wrap;html=1;fontColor=#333333;" vertex="1" parent="l9YVHGjYDrxqyhy5DjKv-29">
          <mxGeometry y="26" width="230" height="26" as="geometry" />
        </mxCell>
        <mxCell id="l9YVHGjYDrxqyhy5DjKv-31" value="" style="line;strokeWidth=1;fillColor=none;align=left;verticalAlign=middle;spacingTop=-1;spacingLeft=3;spacingRight=3;rotatable=0;labelPosition=right;points=[];portConstraint=eastwest;strokeColor=inherit;" vertex="1" parent="l9YVHGjYDrxqyhy5DjKv-29">
          <mxGeometry y="52" width="230" as="geometry" />
        </mxCell>
        <mxCell id="l9YVHGjYDrxqyhy5DjKv-32" value="- constructor()&lt;div&gt;+ static getInstance(): Picture-Provider&lt;/div&gt;&lt;div&gt;+ savePictue(ctx): response&lt;/div&gt;&lt;div&gt;+ findPictures(ctx): response&lt;/div&gt;&lt;div&gt;+ getCount(ctx): response&lt;/div&gt;&lt;div&gt;+ getLabels(ctx): response&lt;/div&gt;" style="text;strokeColor=#666666;fillColor=#f5f5f5;align=left;verticalAlign=top;spacingLeft=4;spacingRight=4;overflow=hidden;rotatable=0;points=[[0,0.5],[1,0.5]];portConstraint=eastwest;whiteSpace=wrap;html=1;fontColor=#333333;" vertex="1" parent="l9YVHGjYDrxqyhy5DjKv-29">
          <mxGeometry y="52" width="230" height="110" as="geometry" />
        </mxCell>
        <mxCell id="l9YVHGjYDrxqyhy5DjKv-33" value="" style="edgeStyle=orthogonalEdgeStyle;rounded=0;orthogonalLoop=1;jettySize=auto;html=1;entryX=0;entryY=0.5;entryDx=0;entryDy=0;exitX=1.002;exitY=0.352;exitDx=0;exitDy=0;exitPerimeter=0;" edge="1" parent="1" source="l9YVHGjYDrxqyhy5DjKv-24" target="l9YVHGjYDrxqyhy5DjKv-11">
          <mxGeometry relative="1" as="geometry" />
        </mxCell>
        <mxCell id="l9YVHGjYDrxqyhy5DjKv-34" value="verwendet" style="text;html=1;align=center;verticalAlign=middle;resizable=0;points=[];autosize=1;strokeColor=none;fillColor=none;" vertex="1" parent="1">
          <mxGeometry x="695" y="490" width="80" height="30" as="geometry" />
        </mxCell>
        <mxCell id="l9YVHGjYDrxqyhy5DjKv-38" style="edgeStyle=orthogonalEdgeStyle;rounded=0;orthogonalLoop=1;jettySize=auto;html=1;entryX=0.5;entryY=0;entryDx=0;entryDy=0;" edge="1" parent="1" source="l9YVHGjYDrxqyhy5DjKv-37" target="l9YVHGjYDrxqyhy5DjKv-1">
          <mxGeometry relative="1" as="geometry">
            <Array as="points">
              <mxPoint x="245" y="140" />
            </Array>
          </mxGeometry>
        </mxCell>
        <mxCell id="l9YVHGjYDrxqyhy5DjKv-39" style="edgeStyle=orthogonalEdgeStyle;rounded=0;orthogonalLoop=1;jettySize=auto;html=1;entryX=0.5;entryY=0;entryDx=0;entryDy=0;" edge="1" parent="1" source="l9YVHGjYDrxqyhy5DjKv-37" target="l9YVHGjYDrxqyhy5DjKv-5">
          <mxGeometry relative="1" as="geometry">
            <Array as="points">
              <mxPoint x="543" y="140" />
            </Array>
          </mxGeometry>
        </mxCell>
        <mxCell id="l9YVHGjYDrxqyhy5DjKv-37" value="Controller" style="html=1;whiteSpace=wrap;fillColor=#f5f5f5;fontColor=#333333;strokeColor=#666666;" vertex="1" parent="1">
          <mxGeometry x="340" y="110" width="100" height="50" as="geometry" />
        </mxCell>
        <mxCell id="l9YVHGjYDrxqyhy5DjKv-41" value="Code_Controller_API" style="text;html=1;align=center;verticalAlign=middle;resizable=0;points=[];autosize=1;strokeColor=none;fillColor=none;" vertex="1" parent="1">
          <mxGeometry x="830" y="630" width="140" height="30" as="geometry" />
        </mxCell>
        <mxCell id="l9YVHGjYDrxqyhy5DjKv-42" value="verwendet" style="text;html=1;align=center;verticalAlign=middle;resizable=0;points=[];autosize=1;strokeColor=none;fillColor=none;" vertex="1" parent="1">
          <mxGeometry x="540" y="351" width="80" height="30" as="geometry" />
        </mxCell>
        <mxCell id="l9YVHGjYDrxqyhy5DjKv-43" value="verwendet" style="text;html=1;align=center;verticalAlign=middle;resizable=0;points=[];autosize=1;strokeColor=none;fillColor=none;" vertex="1" parent="1">
          <mxGeometry x="240" y="330" width="80" height="30" as="geometry" />
        </mxCell>
        <mxCell id="l9YVHGjYDrxqyhy5DjKv-44" value="beinhaltet" style="text;html=1;align=center;verticalAlign=middle;resizable=0;points=[];autosize=1;strokeColor=none;fillColor=none;" vertex="1" parent="1">
          <mxGeometry x="540" y="160" width="80" height="30" as="geometry" />
        </mxCell>
        <mxCell id="l9YVHGjYDrxqyhy5DjKv-45" value="beinhaltet" style="text;html=1;align=center;verticalAlign=middle;resizable=0;points=[];autosize=1;strokeColor=none;fillColor=none;" vertex="1" parent="1">
          <mxGeometry x="170" y="150" width="80" height="30" as="geometry" />
        </mxCell>
      </root>
    </mxGraphModel>
  </diagram>
</mxfile>
